<svg width="169" height="28" viewBox="0 0 169 28" fill="none" xmlns="http://www.w3.org/2000/svg">
<path d="M39.5816 20L40.9676 16.868H47.3396L48.7256 20H50.9216L45.5396 7.94H42.8036L37.4216 20H39.5816ZM43.3796 11.45L44.0816 9.74H44.2256L44.9276 11.45L46.5656 15.122H41.7416L43.3796 11.45ZM55.7636 20.18C57.7796 20.18 59.0936 19.208 59.4716 17.426H59.5976V20H61.3796V7.94H59.4356V13.484H59.3276C58.9676 11.972 57.7616 10.874 55.6376 10.874C52.9196 10.874 51.3716 12.746 51.3716 15.536C51.3716 18.29 52.9376 20.18 55.7636 20.18ZM53.3336 15.536C53.3336 13.376 54.4496 12.638 56.3216 12.638C58.3196 12.638 59.4356 13.574 59.4356 15.482V15.626C59.4356 17.498 58.2656 18.398 56.3576 18.398C54.4316 18.398 53.3336 17.678 53.3336 15.536ZM65.8051 20.18C67.8391 20.18 69.2611 19.28 69.7291 17.768H69.8551V20H71.6371V14.564C71.6371 12.422 70.3591 10.874 67.5151 10.874C64.6711 10.874 62.9791 12.404 62.9791 14.438V14.51H64.9051V14.438C64.9051 13.124 65.7151 12.584 67.3711 12.584C69.0811 12.584 69.7291 13.106 69.7291 14.582V15.104L65.6611 15.536C63.8971 15.734 62.7811 16.454 62.7811 17.84C62.7811 19.316 63.9511 20.18 65.8051 20.18ZM64.7251 17.714C64.7251 17.012 65.2111 16.778 66.2191 16.652L69.7291 16.256C69.7291 18.02 68.3611 18.776 66.3271 18.776C65.2111 18.776 64.7251 18.434 64.7251 17.714ZM75.3164 20V15.572C75.3164 13.592 75.9824 12.62 77.9084 12.62C79.6364 12.62 80.3204 13.376 80.3204 15.14V20H82.2464V15.572C82.2464 13.592 82.9304 12.62 84.8384 12.62C86.5664 12.62 87.2684 13.376 87.2684 15.14V20H89.1944V14.618C89.1944 12.458 88.0244 10.874 85.7024 10.874C83.4344 10.874 82.4264 12.296 82.1924 13.826H82.0844C81.8324 12.116 80.7344 10.874 78.7004 10.874C76.4684 10.874 75.4964 12.26 75.2624 13.754H75.1544V11.054H73.3724V20H75.3164ZM92.877 20V14.978C92.877 13.376 93.507 12.53 95.037 12.53C96.369 12.53 96.909 13.124 96.909 14.402V15.194H98.835V14.024C98.835 12.332 97.953 10.874 95.919 10.874C94.083 10.874 93.111 12.026 92.841 13.466H92.715V11.054H90.933V20H92.877ZM102.684 20V12.674H105.888V11.054H102.648C102.54 9.758 103.278 9.38 104.7 9.38H105.888V7.94H105.006C102.468 7.94 100.974 9.092 100.758 11.054H99.39V12.674H100.74V20H102.684ZM109.052 20V17.21H106.604V20H109.052ZM114.439 20.18C116.455 20.18 117.769 19.208 118.147 17.426H118.273V20H120.055V7.94H118.111V13.484H118.003C117.643 11.972 116.437 10.874 114.313 10.874C111.595 10.874 110.047 12.746 110.047 15.536C110.047 18.29 111.613 20.18 114.439 20.18ZM112.009 15.536C112.009 13.376 113.125 12.638 114.997 12.638C116.995 12.638 118.111 13.574 118.111 15.482V15.626C118.111 17.498 116.941 18.398 115.033 18.398C113.107 18.398 112.009 17.678 112.009 15.536ZM126.353 20.18C129.017 20.18 130.889 18.866 130.889 16.958V16.796H128.945V16.94C128.945 18.002 128.171 18.614 126.299 18.614C124.229 18.614 123.383 17.696 123.311 15.968H130.907C130.961 15.698 130.979 15.446 130.979 15.122C130.979 12.404 129.089 10.874 126.317 10.874C123.401 10.874 121.493 12.746 121.493 15.536C121.493 18.524 123.419 20.18 126.353 20.18ZM126.281 12.404C128.189 12.404 129.143 13.196 129.143 14.852V14.888H123.329C123.437 13.286 124.301 12.404 126.281 12.404ZM136.665 20.18C139.185 20.18 140.841 19.19 140.841 17.516C140.841 16.04 139.869 15.32 137.745 15.05L135.675 14.762C134.325 14.582 133.965 14.33 133.965 13.628C133.965 12.782 134.541 12.422 136.179 12.422C138.159 12.422 138.699 12.98 138.699 14.042V14.15H140.625V14.096C140.625 11.972 138.969 10.874 136.233 10.874C133.479 10.874 132.057 11.99 132.057 13.556C132.057 15.05 133.083 15.77 134.775 15.986L137.223 16.31C138.501 16.49 138.933 16.724 138.933 17.462C138.933 18.254 138.411 18.614 136.665 18.614C134.793 18.614 134.091 18.236 134.091 17.066V16.922H132.147V16.976C132.147 19.046 133.785 20.18 136.665 20.18ZM144.188 10.01V7.94H142.244V10.01H144.188ZM144.188 20V11.054H142.244V20H144.188ZM149.876 19.19C151.91 19.19 153.116 18.218 153.44 16.868H153.566V19.064C153.566 21.062 152.828 21.62 150.794 21.62C148.886 21.62 148.13 21.134 148.13 19.838H146.204C146.204 21.998 148.04 23.24 150.686 23.24C153.62 23.24 155.492 21.962 155.492 18.956V11.054H153.71V13.286H153.602C153.278 11.72 151.874 10.874 150.002 10.874C147.284 10.874 145.628 12.548 145.628 15.032C145.628 17.516 147.212 19.19 149.876 19.19ZM147.59 15.032C147.59 13.196 148.688 12.566 150.56 12.566C152.45 12.566 153.566 13.34 153.566 14.852V15.104C153.566 16.688 152.486 17.516 150.506 17.516C148.67 17.516 147.59 16.868 147.59 15.032ZM159.234 20V15.572C159.234 13.628 160.116 12.62 162.078 12.62C163.932 12.62 164.688 13.466 164.688 15.14V20H166.632V14.618C166.632 12.548 165.408 10.874 162.924 10.874C160.656 10.874 159.468 12.314 159.198 13.826H159.072V11.054H157.29V20H159.234Z" fill="#134141"/>
<path fill-rule="evenodd" clip-rule="evenodd" d="M13.1203 0.146532C13.3817 -0.0745129 13.7729 -0.0417595 13.9939 0.219689L18.1127 5.09137C18.3338 5.35282 18.301 5.74396 18.0396 5.965C17.7781 6.18605 17.387 6.15329 17.1659 5.89184L13.0471 1.02016C12.8261 0.758714 12.8588 0.367576 13.1203 0.146532ZM9.268 0.146527C9.52945 -0.0745145 9.92059 -0.0417565 10.1416 0.219694L19.2859 11.0356C19.5069 11.2971 19.4742 11.6882 19.2127 11.9093C18.9513 12.1303 18.5601 12.0976 18.3391 11.8361L9.19484 1.02016C8.9738 0.758706 9.00655 0.367569 9.268 0.146527ZM5.86993 0.683977C6.13138 0.462933 6.52252 0.495688 6.74356 0.757137L20.7243 17.2934C20.9453 17.5549 20.9126 17.946 20.6511 18.1671C20.3897 18.3881 19.9986 18.3554 19.7775 18.0939L5.79677 1.55761C5.57573 1.29616 5.60848 0.905021 5.86993 0.683977ZM5.13081 4.36658C5.39226 4.14554 5.78339 4.17829 6.00444 4.43974L22.2751 23.6843C22.4961 23.9458 22.4634 24.3369 22.202 24.558C21.9405 24.779 21.5494 24.7462 21.3283 24.4848L5.05765 5.24021C4.83661 4.97877 4.86936 4.58763 5.13081 4.36658ZM4.35945 8.01077C4.6209 7.78972 5.01204 7.82248 5.23308 8.08393L13.16 17.4599C13.3811 17.7214 13.3483 18.1125 13.0868 18.3335C12.8254 18.5546 12.4343 18.5218 12.2132 18.2604L4.28629 8.8844C4.06524 8.62295 4.098 8.23181 4.35945 8.01077ZM3.57559 11.6405C3.83701 11.4194 4.22815 11.4521 4.44922 11.7135L15.1529 24.3706L15.3256 21.6737C15.3418 21.4213 15.5097 21.204 15.7499 21.1247C15.9901 21.0454 16.2544 21.1199 16.4177 21.3131L21.0929 26.8427C21.314 27.1041 21.2813 27.4953 21.0198 27.7163C20.7584 27.9374 20.3672 27.9046 20.1462 27.6432L16.4646 23.2888L16.2919 25.9855C16.2757 26.2379 16.1078 26.4551 15.8677 26.5345C15.6275 26.6138 15.3632 26.5393 15.1999 26.3461L3.50254 12.5141C3.28146 12.2527 3.31416 11.8616 3.57559 11.6405ZM2.75649 15.2281C3.01794 15.0071 3.40908 15.0398 3.63012 15.3013L11.7496 24.9047C11.9706 25.1662 11.9379 25.5573 11.6764 25.7784C11.415 25.9994 11.0239 25.9667 10.8028 25.7052L2.68334 16.1017C2.46229 15.8403 2.49504 15.4492 2.75649 15.2281ZM1.92092 18.7965C2.18237 18.5755 2.57351 18.6082 2.79455 18.8697L9.53546 26.8427C9.75651 27.1042 9.72375 27.4953 9.46231 27.7163C9.20086 27.9374 8.80972 27.9046 8.58868 27.6432L1.84777 19.6702C1.62672 19.4087 1.65947 19.0176 1.92092 18.7965ZM1.07056 22.3472C1.33201 22.1262 1.72315 22.1589 1.94419 22.4204L5.68305 26.8427C5.9041 27.1042 5.87134 27.4953 5.60989 27.7163C5.34844 27.9374 4.9573 27.9046 4.73626 27.6432L0.997398 23.2208C0.776356 22.9594 0.809114 22.5682 1.07056 22.3472ZM0.219687 25.8976C0.481135 25.6766 0.872272 25.7093 1.09332 25.9708L1.83051 26.8427C2.05156 27.1042 2.0188 27.4953 1.75736 27.7163C1.49591 27.9374 1.10477 27.9046 0.883726 27.6432L0.146533 26.7713C-0.0745126 26.5098 -0.0417601 26.1187 0.219687 25.8976Z" fill="#134141"/>
</svg>
