<svg width="23" height="28" viewBox="0 0 23 28" fill="none" xmlns="http://www.w3.org/2000/svg">
<path fill-rule="evenodd" clip-rule="evenodd" d="M13.1203 0.146532C13.3817 -0.0745129 13.7729 -0.0417595 13.9939 0.219689L18.1127 5.09137C18.3338 5.35282 18.301 5.74396 18.0396 5.965C17.7781 6.18605 17.387 6.15329 17.1659 5.89184L13.0471 1.02016C12.8261 0.758714 12.8588 0.367576 13.1203 0.146532ZM9.268 0.146527C9.52945 -0.0745145 9.92059 -0.0417565 10.1416 0.219694L19.2859 11.0356C19.5069 11.2971 19.4742 11.6882 19.2127 11.9093C18.9513 12.1303 18.5601 12.0976 18.3391 11.8361L9.19484 1.02016C8.97379 0.758706 9.00655 0.367569 9.268 0.146527ZM5.86993 0.683977C6.13138 0.462933 6.52252 0.495688 6.74356 0.757137L20.7243 17.2934C20.9453 17.5549 20.9126 17.946 20.6511 18.1671C20.3897 18.3881 19.9986 18.3554 19.7775 18.0939L5.79677 1.55761C5.57573 1.29616 5.60848 0.905021 5.86993 0.683977ZM5.13081 4.36658C5.39226 4.14554 5.78339 4.17829 6.00444 4.43974L22.2751 23.6843C22.4961 23.9458 22.4634 24.3369 22.202 24.558C21.9405 24.779 21.5494 24.7463 21.3283 24.4848L5.05765 5.24021C4.83661 4.97877 4.86936 4.58763 5.13081 4.36658ZM4.35945 8.01077C4.6209 7.78972 5.01204 7.82248 5.23308 8.08393L13.16 17.4599C13.3811 17.7214 13.3483 18.1125 13.0868 18.3335C12.8254 18.5546 12.4343 18.5218 12.2132 18.2604L4.28629 8.8844C4.06524 8.62295 4.098 8.23181 4.35945 8.01077ZM3.57559 11.6405C3.83701 11.4194 4.22815 11.4521 4.44922 11.7135L15.1529 24.3706L15.3256 21.6737C15.3418 21.4213 15.5097 21.204 15.7499 21.1247C15.9901 21.0454 16.2544 21.1199 16.4177 21.3131L21.0929 26.8427C21.314 27.1041 21.2813 27.4953 21.0198 27.7163C20.7584 27.9374 20.3672 27.9046 20.1462 27.6432L16.4646 23.2888L16.2919 25.9855C16.2757 26.2379 16.1078 26.4551 15.8677 26.5345C15.6275 26.6138 15.3632 26.5393 15.1999 26.3461L3.50254 12.5141C3.28146 12.2527 3.31416 11.8616 3.57559 11.6405ZM2.75649 15.2281C3.01794 15.0071 3.40908 15.0398 3.63012 15.3013L11.7496 24.9047C11.9706 25.1662 11.9379 25.5573 11.6764 25.7784C11.415 25.9994 11.0239 25.9667 10.8028 25.7052L2.68334 16.1017C2.46229 15.8403 2.49504 15.4492 2.75649 15.2281ZM1.92092 18.7965C2.18237 18.5755 2.57351 18.6082 2.79455 18.8697L9.53546 26.8427C9.75651 27.1042 9.72375 27.4953 9.46231 27.7163C9.20086 27.9374 8.80972 27.9046 8.58868 27.6432L1.84777 19.6702C1.62672 19.4087 1.65947 19.0176 1.92092 18.7965ZM1.07056 22.3472C1.33201 22.1262 1.72315 22.1589 1.94419 22.4204L5.68305 26.8427C5.9041 27.1042 5.87134 27.4953 5.60989 27.7163C5.34844 27.9374 4.9573 27.9046 4.73626 27.6432L0.997398 23.2208C0.776356 22.9594 0.809114 22.5682 1.07056 22.3472ZM0.219687 25.8976C0.481135 25.6766 0.872272 25.7093 1.09332 25.9708L1.83051 26.8427C2.05156 27.1042 2.0188 27.4953 1.75736 27.7163C1.49591 27.9374 1.10477 27.9046 0.883726 27.6432L0.146533 26.7713C-0.0745126 26.5098 -0.0417601 26.1187 0.219687 25.8976Z" fill="#134141"/>
</svg>
